<?xml version="1.0" encoding="UTF-8"?>
<svg width="1200pt" height="1200pt" version="1.1" viewBox="0 0 1200 1200" xmlns="http://www.w3.org/2000/svg">
 <path d="m102.06 357.44c-3.4258 3.3945-5.4023 7.0273-5.1719 9.5 2.7305 5.2227 25.516 14.477 32.582 12.758 2.582-5.918-4.5586-26.516-9.7773-31.332-4.4883 0.19531-11.984 3.4648-17.633 9.0742z"/>
 <path d="m1148.2 881.93c-9.6094-24.492-33.379-31.68-45.352-33.766-4.1211 17.312 0.33594 41.102 2.7188 49.789 0.77344 2.8203 0.26953 5.8477-1.3906 8.2617-1.6562 2.4141-4.2969 3.9727-7.207 4.2695-48.586 4.8359-85.629-9.5312-106.79-21.156l2.7109 16.559c0.51562 3.0781-0.46484 6.2148-2.6211 8.4766-2.1641 2.2539-5.2617 3.3242-8.3477 3-45.199-5.4023-77.258-32.086-98.512-58.645-62.309 45.281-147.82 49.352-184.23 48.883l9.9492 19.738c1.3594 2.6914 1.418 5.8672 0.14844 8.6172-1.2617 2.7383-3.7031 4.7656-6.6406 5.4883-10.168 2.5117-25.555 3.3359-41.438 3.3359-29.742 0-61.195-2.8984-63.191-3.0977-0.019531 0-0.039062-0.019532-0.058593-0.019532-0.03125 0-0.050782 0.011719-0.078126 0l-26.309-2.8672c6.7422 16.23 13.453 42.461 6.582 73.137 18.961 5.3125 51.625 12.707 73.098 10.801l-3.7539-16.867c-0.77344-3.5039 0.39844-7.1484 3.0781-9.5391 2.6602-2.4023 6.4336-3.1562 9.8203-2.0039 0.625 0.20703 58.504 19.605 104.36 15.289v-42.957c0-3.4844 1.8281-6.7031 4.7969-8.5 3-1.8086 6.6797-1.9062 9.7578-0.27734 0.26953 0.14844 24.273 12.656 47.465 14.82v-22.457c0-3.7227 2.0859-7.1367 5.4023-8.8359 3.3047-1.6992 7.3086-1.4102 10.324 0.77344 0.75391 0.54688 76.059 54.246 130.08 54.246 1.0234 0 2.0547-0.011719 3.1172-0.011719 16.41 0 37.586 2.0156 43.641 16.371 5.5703 13.195-6.3047 25.652-7.6641 27.043-1.707 1.7188-3.9805 2.75-6.4023 2.8984-29.438 1.8945-39.203 8.8672-42.41 12.848-1.3594 1.6875-3.0781 4.5781-2.2539 10.059 5.3711 35.402 39.164 33.574 90.016 26.773 12.809-1.707 24.898-3.3242 35.738-3.6133 5.3789-0.14062 9.3125-2.0469 12.391-5.9883 13.352-17.145 6.7031-64.062 3.3164-79.152-0.68359-3.0781 0.12891-6.3047 2.2031-8.6875 16.828-19.34 23.828-69.91 25.105-87.77 0.25781-3.7734 2.6602-7.0703 6.1641-8.4883 3.4961-1.4297 7.5156-0.72656 10.336 1.7852 8.5977 7.6562 18.336 11.746 27.828 13.859-10.227-7.3555-19.734-17.699-25.496-32.422z"/>
 <path d="m1001 1020.1c-0.31641 0-5.0938-4-27.312-3.8711h-1.0312c-19.746 0-41.359-5.9375-61.621-14.008-7.9922 2.7188-35.977 13.977-35.977 37.188 0 2.8281 1.043 5.0625 3.3945 7.2578 10.633 9.9492 40.785 12.766 62.516 12.398 0.66406-5.918 2.75-11.379 6.4844-16.012 8.9648-11.141 26.059-17.652 52.191-19.875 0.76953-1.2227 1.3359-2.4336 1.3555-3.0781z"/>
 <path d="m41.32 290.44c0.011719-2.9102 1.2891-5.668 3.5039-7.5469 2.2227-1.875 5.1133-2.6797 8.0234-2.2344 28.363 4.6055 46.809-6.332 57.262-16.32 2.125-2.0156 2.7188-5.3398 1.4688-8.0703-32.078-70.23-75.102-120.81-91.344-138.54-3.7227 4.1484-7.0469 8.9336-9.75 14.781-27.164 58.727 5.2422 178.12 20.75 227.61 2.8203-4.8242 6.1758-10.066 9.9883-15.328z"/>
 <path d="m482.74 937.74c-16.727-10.633-52.707 17.504-65.156 29.613 0.21875 11.168-0.019531 23.371-0.93359 36.781 1.8477 3.7227 4.8242 10.84 6.7422 20.363 14.484-0.93359 31.82 2.1055 52.07 9.3633 5.1641 1.8555 7.8438 7.5352 5.9961 12.699-1.8477 5.1641-7.5742 7.8438-12.699 5.9961-27.988-10.047-49.789-11.168-61.363-3.1172-6.7109 4.668-10.188 12.559-10.324 23.48-0.011718 0.625-0.019531 1.7852 2.2227 3.5938 17.383 13.969 89.43 10.891 118.84 4.0312-0.039062 0 3.9102-3.3438 3.8711-20.66-0.10547-44.211-24.203-112.59-39.262-122.14z"/>
 <path d="m400.41 1016.4c-19.449 0.38672-53.293 0.16016-63.16-5.5312-2.0469-1.1914-5.6094 0.20703-8.1211 1.6289-2.0039 5.7891-6.2461 12.766-13.414 18.219-0.29688 0.25781-0.64453 0.41797-0.97266 0.63672-6.7695 4.8555-15.934 8.3984-28.312 8.3984-5.3789 0-8.1016 2.8398-8.1016 8.4375 0 5.5195 3.0664 11.516 8.1914 16.023 4.8633 4.2695 13.949 9.3516 29.625 9.3516h61.105c-0.011719-0.30859-0.03125-0.63672-0.03125-0.93359 0.21875-17.453 6.7422-31.125 18.852-39.531 2.4531-1.6992 5.1328-3.0977 7.9414-4.3086-1.0078-5.2109-2.3984-9.4219-3.6016-12.391z"/>
 <path d="m444.95 198.01c-0.76562-14.633-4.0508-21.75-6.8711-23.539-15.277-9.6602-75.84 46.652-121.51 104.05-0.46484 7.7852 0.03125 31.59 22.637 38.043 36.941 10.535 47.773 22.16 50.641 67.16 30.957-43.57 57.684-136.7 55.102-185.72z"/>
 <path d="m125.09 537.2c-1.5586-0.72656-5.7383-2.0469-15.398-2.0469-16.141 0-18.953 3.4844-18.973 3.5156-0.11719 0.45703-0.89453 5.293 13.582 21.008 10.484-8.4492 19.359-17.961 20.789-22.477z"/>
 <path d="m220.33 357.56c-3.3047 3.3164-6.7812 11.289-7.1797 19.238-0.23828 4.7461 0.69531 8.6875 2.4336 10.297 5.668 1.957 29.812-7.3672 32.742-13.48-1.082-4.7188-20.609-15.977-27.996-16.055z"/>
 <path d="m1188.5 837.27c-1.4492-44.379-3.2656-99.605-59.23-183.99-71.441-107.75-215.16-108.15-354.14-108.54-45.41-0.12891-92.379-0.25781-135.18-4.3477-131.55-12.57-173.69-105.04-186.78-153.12-15.082 25.613-33.617 44.992-55.039 52.715-1.1016 0.39844-2.2539 0.59375-3.3672 0.59375-4.0586 0-7.8828-2.5234-9.332-6.5625-1.8672-5.1641 0.8125-10.852 5.9766-12.707 46.551-16.789 79.977-108.34 85.398-187.16 3.3672-48.984-4.8438-86.074-20.918-94.523-35.699-18.742-121.68 64.996-167.44 122.19-3.0273 3.7734-8.3008 4.8242-12.527 2.5-41.52-22.754-121.86-9.9688-122.68-9.8398-4.5977 0.74609-9.2344-1.8672-10.891-6.3047-38.57-102.52-75.312-153.34-103.44-143.24-0.83203 0.29688-1.5391 0.78516-2.3438 1.1328 18.207 20.004 60.57 70.695 93.102 141.95 4.7852 10.484 2.4531 22.812-5.8281 30.695-10.059 9.6016-30.836 24.344-62.645 22.766l-0.039063 21.254c7.4844-6.4414 15.844-11.754 25.098-14.625 5.2109-1.6172 10.793 1.3203 12.41 6.5508 1.6172 5.2422-1.3086 10.801-6.5508 12.418-25.535 7.8945-46.273 45.469-52.953 61.074-0.51563 9.1719-2.6523 58.812 8.3984 86.383 1.4688 3.6719 2.6094 7.3672 3.582 11.07 3.4062-2.5234 7.0781-4.8047 11.18-6.6797 11.238-5.1445 22.684-19.211 30.766-31.711-4.5156-4.082-7.4258-9.9688-7.4258-16.59 0-12.309 9.8203-22.277 21.941-22.277s21.941 9.9766 21.941 22.277c0 10.254-6.8594 18.805-16.152 21.395-9.082 15.34-24.609 36.625-42.809 44.953-16.629 7.6133-21.207 21.117-22.117 31.113-1.5391 16.797 6.4922 36.445 18.297 44.715 6.4414 4.5156 15.32 10.137 25.961 15.695-0.11719-4.6875 0.011718-8.9766 0.19922-11.992-9.2812-9.6211-27.531-28.871-20.41-45.637 6.6016-15.578 29.652-15.578 37.23-15.578 7.3477 0 29.695 0 34.609 15.457 5.4023 16.965-17.859 37.32-31.641 47.594-0.28906 5.2734-0.33594 13.094 0.72656 19.668 23.113 9.2227 51.445 15.844 82.27 12.816 26.07-10.832 30.152-54.512 30.18-54.949 0.41797-5.4688 5.043-9.6016 10.652-9.1445 5.4688 0.41797 9.5586 5.1836 9.1445 10.652-0.10938 1.5078-2.125 24.84-13.828 45.27 6.7227-2.3828 13.48-5.1133 20.301-8.6484 4.8633-2.5508 10.859-0.625 13.383 4.25 2.5234 4.875 0.625 10.859-4.25 13.383-27.965 14.496-55.348 19.984-80.742 19.984-56.48 0-103.21-27.121-125.19-42.539-2.0664-1.4492-4.0195-3.1289-5.8984-4.9336 1.8164 60.488 9.3711 169.95 39.602 223.67 35.48 63.062 83.504 149.49 101.37 181.68l26.727-32.426c2.2852-2.7695 5.9258-4.0898 9.4297-3.4531 3.5352 0.64453 6.4531 3.1484 7.625 6.5508 0.59375 1.6797 15.477 41.348 72.203 52.43 3.0977-3.3867 4.1406-6.918 4.3984-8.1523 0.46484-2.2031 1.6992-4.3477 3.4336-5.7773 6.375-5.2305 20.48-12.18 32.93-4.9922 4.707 2.1836 28.117 3.1758 50.117 2.918 4.3594-80.543-16.371-113.27-16.59-113.59-2.9883-4.5586-1.7578-10.711 2.7812-13.73 4.5156-3.0195 10.633-1.8555 13.691 2.6523 0.69531 1.0117 11.188 17.094 16.918 53.133 23.719-24.016 30.566-34.152 32.344-38.32-1.6562-0.58594-3.9922-1.2031-5.7383-1.6562-11.297-2.9883-32.336-8.5586-32.336-35.531 0-23.809-20.363-30.199-46.977-36.078-14.453-3.1953-25.883-5.7188-28.582-15.984-2.2148-8.418 4.4688-20.75 19.578-36.672-21.234 5.5977-41.758 9.75-55.168 9.75-6.9805 0-12.043-1.1133-14.297-3.7227-3.1875-3.6719-4.2578-10.188 0.93359-15.797 9.4805-10.254 14.543-36.137 15.695-45.25 0.52734-4.1289 3.5625-7.4961 7.625-8.4375 25.633-5.9062 56.242-38.945 56.547-39.273 54.672-49.609 40.336-132.64 20.66-166.23-7.2383-12.34-14.613-17.613-18.266-16.359-26.082 8.7461-63.457-0.42578-85.617-7.5664-4.8164 4.7344-11.348 7.6758-18.566 7.6758-14.762 0-26.727-12.152-26.727-27.141 0-14.992 11.965-27.141 26.727-27.141s26.727 12.152 26.727 27.141c0 0.40625-0.097657 0.79297-0.11719 1.1914 21.484 6.7031 52.238 13.402 71.262 7.0078 14.297-4.7734 29.535 4.3477 41.715 25.156 26.051 44.457 36.496 135.68-23.809 190.34-0.71484 0.83203-29.902 32.375-59.449 42.629-1.4688 8.4102-4.668 23.062-10.641 35.59 18.941-3.0586 52.457-11.426 79.461-19.824 0.070313-0.019531 0.14063-0.050781 0.21875-0.070312 17.941-5.5898 33-11.18 38.836-15.211 8.1992-5.668 14.973-12.527 20.938-18.594 9.582-9.7188 18.633-18.891 30.844-19.906 5.5977-0.50781 10.266 3.6133 10.711 9.0742 0.45703 5.4609-3.6055 10.254-9.0625 10.711-4.8945 0.40625-11.129 6.7305-18.367 14.059-6.582 6.6797-14.047 14.258-23.785 20.988-3.7539 2.5898-20.242 9.0938-41.121 16.055-0.019531 0.019531-0.03125 0.039063-0.050781 0.050781-19.707 16.102-38.062 34.766-42.898 43.305 3.2578 1.0508 8.3281 2.1641 12.34 3.0586 23.391 5.1719 62.555 13.82 62.555 55.465 0 10.684 4.8164 12.965 17.562 16.332 7.9805 2.1055 17.91 4.7344 20.531 14.773 2.3438 8.9844-1.3516 19.289-25.02 44.785 21.105-11.406 38.648-12.996 52.121-4.457 21.742 13.801 42.332 74.695 47.258 120.32 7.5742-7.3164 13.312-16.422 16.371-26.43 13.828-45.379-10.664-81.945-10.91-82.312-2.1953-3.1953-2.3242-7.3945-0.33594-10.723 1.9961-3.3242 5.7578-5.1836 9.5898-4.7734l18.477 2.0156c-18.863-26.754-34.867-66.098-37.148-71.828-2.0352-5.0938 0.44531-10.871 5.5508-12.895 5.043-2.0156 10.859 0.4375 12.895 5.5391 7.4375 18.625 30 68.363 47.613 82.281 18.348 1.5977 57.93 4.0508 82.531 1.8867l-11.398-22.637c-1.6094-3.207-1.3711-7.0391 0.64453-10.016 2.0039-2.9766 5.5977-4.6875 9.0547-4.3398 1.1914 0.10938 114.84 8.9453 188.25-44.309-14.555-22-21.465-40.703-22.109-42.512-1.8555-5.1641 0.83203-10.832 5.9883-12.688 5.1836-1.8477 10.852 0.82422 12.699 5.9766 0.32812 0.89453 31.215 84.188 102.65 101.7l-4.1016-25.02c-0.67578-4.1211 1.2891-8.2188 4.9258-10.266 3.6328-2.0352 8.1523-1.5977 11.328 1.1133 0.38672 0.32813 39.582 32.535 100.68 30.41-2.6094-14.516-5.1719-39.492 3.0781-58.098 1.6289-3.6719 5.1445-6.0664 9.332-5.8984 2.1445 0.050781 52.668 1.9062 70.418 47.215 6.7227 17.164 20.949 26.488 33.309 31.531-10.016-21.773-10.758-44.082-11.574-68.93zm-1047.5-441.21c-3.7344 2.582-8.3789 3.5234-13.184 3.5234-11.555 0-24.066-5.4609-27.25-6.9492-8.2695-3.8633-22.316-12.094-23.418-23.836-0.80469-8.5859 3.0859-17.621 10.961-25.445 8.2891-8.2305 22.207-15.984 34.785-14.715 16.488 1.6562 24.512 32.047 24.84 33.336 4.1367 16.117 1.7539 28.23-6.7344 34.086zm126.57-17.551c-3.6719 15.508-28.344 23.766-33.27 25.266-5.1523 1.5703-11.207 2.8984-16.988 2.8984-5.7383 0-11.188-1.3086-15.18-4.9922-6.2148-5.75-9.332-14.93-8.7852-25.871 0.59375-11.824 5.75-27.203 15.934-34.887 10.555-7.9414 30.281 1.0234 40.285 7.5547 14.035 9.1719 20.426 19.844 18.004 30.031zm108.95 38.816c-3.4141-1.6289-5.6094-5.0547-5.6602-8.8359-0.85547-62.496-7.0898-64.281-37.07-72.832-34.676-9.8867-39.117-45.152-36.613-62.414 0.23828-1.7266 0.94141-3.3555 2.0234-4.7266 25.336-32.156 110.95-135.25 149.54-110.82 9.75 6.1758 15.02 19.023 16.074 39.273 3.3359 63.238-35.285 185.46-77.855 219.18-1.7969 1.418-3.9727 2.1445-6.1641 2.1445-1.4531-0.007812-2.9102-0.31641-4.2695-0.96094z"/>
</svg>
